<svg width="29" height="30" viewBox="0 0 29 30" fill="none" xmlns="http://www.w3.org/2000/svg">
<path d="M10.0485 1.68929C6.59069 2.87918 3.64162 5.48255 2.00413 8.76471C1.43181 9.89869 1.01846 11.1045 0.772045 12.3503C0.144077 15.4488 0.58127 18.747 2.00413 21.5739C2.92621 23.4186 4.25369 25.0557 5.85938 26.3335C7.37764 27.5473 9.14231 28.4417 11.0183 28.9448C13.3791 29.5837 15.8989 29.5677 18.2836 29.0247C20.4378 28.5296 22.4727 27.4914 24.0943 25.9901C25.8113 24.4009 27.0354 22.3166 27.6872 20.0726C28.3947 17.621 28.4901 15.0096 28.0449 12.5021C23.5935 12.5021 19.1421 12.5021 14.6827 12.5021C14.6827 14.3548 14.6827 16.2155 14.6827 18.0682C17.2582 18.0682 19.8416 18.0682 22.4171 18.0682C22.115 19.849 21.0658 21.4701 19.5714 22.4763C18.6334 23.1072 17.5603 23.5225 16.4474 23.7141C15.3266 23.9058 14.174 23.9297 13.0611 23.7061C11.9244 23.4825 10.8434 23.0034 9.89746 22.3326C8.38716 21.2705 7.23455 19.7052 6.64633 17.9564C6.04221 16.1755 6.03426 14.1871 6.64633 12.4062C7.06763 11.1525 7.77508 9.98654 8.70511 9.04421C9.84976 7.86231 11.3362 7.0238 12.9419 6.68041C14.3171 6.38494 15.7638 6.44084 17.1072 6.84812C18.2518 7.19949 19.3011 7.82238 20.1675 8.65291C21.0419 7.78245 21.9083 6.90402 22.7827 6.03357C23.2358 5.5624 23.7207 5.1152 24.1659 4.62807C22.8463 3.39825 21.2883 2.40801 19.5952 1.78512C16.5587 0.643153 13.1168 0.619195 10.0485 1.68929Z" fill="white"/>
<path d="M10.0485 1.68927C13.1168 0.619171 16.5587 0.643129 19.6112 1.77711C21.3043 2.4 22.8543 3.39024 24.1818 4.62005C23.7367 5.0992 23.2597 5.55439 22.7987 6.02555C21.9243 6.89601 21.0579 7.77444 20.1835 8.6449C19.317 7.81437 18.2678 7.18349 17.1231 6.84011C15.7798 6.43283 14.333 6.37693 12.9579 6.6724C11.3522 7.01579 9.86572 7.86229 8.72107 9.0362C7.79104 9.97852 7.08358 11.1444 6.66229 12.3982C5.11224 11.1924 3.56219 9.97852 2.01214 8.77267C3.64168 5.48252 6.59075 2.87915 10.0485 1.68927Z" fill="#E94435"/>
<path d="M0.772045 12.3503C1.01846 11.1045 1.43976 9.89869 2.00413 8.76471C3.55418 9.97056 5.10423 11.1844 6.65428 12.3903C6.04221 14.1711 6.05016 16.1596 6.65428 17.9404C5.10423 19.1462 3.55418 20.3601 2.00413 21.5659C0.58127 18.7549 0.144077 15.4488 0.772045 12.3503Z" fill="#F8BB15"/>
<path d="M14.6907 12.4941C19.1422 12.4941 23.5936 12.4941 28.053 12.4941C28.4981 15.0016 28.4027 17.613 27.6953 20.0646C27.0434 22.3086 25.8193 24.4009 24.1023 25.9821C22.6 24.8082 21.0897 23.6343 19.5953 22.4604C21.0897 21.4621 22.1389 19.833 22.441 18.0522C19.8655 18.0522 17.2821 18.0522 14.7066 18.0522C14.6828 16.2075 14.6907 14.3548 14.6907 12.4941Z" fill="#547DBE"/>
<path d="M2.00411 21.5739C3.55416 20.3681 5.10421 19.1542 6.65426 17.9484C7.24248 19.7053 8.39508 21.2625 9.90539 22.3246C10.8513 22.9954 11.9324 23.4666 13.0691 23.6982C14.1819 23.9218 15.3425 23.8978 16.4553 23.7062C17.5682 23.5145 18.6413 23.0992 19.5793 22.4684C21.0816 23.6423 22.5919 24.8162 24.0863 25.9901C22.4648 27.4994 20.4298 28.5296 18.2757 29.0247C15.8989 29.5677 13.3791 29.5837 11.0103 28.9448C9.13434 28.4417 7.36967 27.5473 5.85141 26.3335C4.25367 25.0478 2.92619 23.4107 2.00411 21.5739Z" fill="#34A751"/>
</svg>
