<svg width="32" height="32" viewBox="0 0 32 32" fill="none" xmlns="http://www.w3.org/2000/svg">
<path d="M22.6667 11.3334C23.7712 11.3334 24.6667 10.4379 24.6667 9.33337C24.6667 8.2288 23.7712 7.33337 22.6667 7.33337C21.5621 7.33337 20.6667 8.2288 20.6667 9.33337C20.6667 10.4379 21.5621 11.3334 22.6667 11.3334Z" fill="#B1B1B1"/>
<path d="M21.3333 4C25.0133 4 28 6.98667 28 10.6667V21.3333C28 25.0133 25.0133 28 21.3333 28H10.6667C6.98667 28 4 25.0133 4 21.3333V10.6667C4 6.98667 6.98667 4 10.6667 4H16H21.3333Z" stroke="#B1B1B1" stroke-width="2" stroke-linecap="round" stroke-linejoin="round"/>
<path d="M16 10.6666C18.9467 10.6666 21.3333 13.0533 21.3333 16C21.3333 18.9466 18.9467 21.3333 16 21.3333C13.0533 21.3333 10.6667 18.9466 10.6667 16C10.6667 13.0533 13.0533 10.6666 16 10.6666Z" stroke="#B1B1B1" stroke-width="2" stroke-linecap="round" stroke-linejoin="round"/>
</svg>
