<svg width="33" height="26" viewBox="0 0 33 26" fill="none" xmlns="http://www.w3.org/2000/svg">
<path d="M28.9009 6.21238C28.6903 4.70212 27.923 3.32347 26.748 2.34382C25.573 1.36418 24.074 0.853362 22.5417 0.910444C21.0094 0.967526 19.553 1.58844 18.455 2.65276C17.3571 3.71708 16.6957 5.14894 16.5993 6.67065C10.3244 9.24399 4.19129 2.84589 4.19129 2.84589C2.41872 13.4213 7.73643 18.2683 7.73643 18.2683C5.32574 20.4715 0.646149 20.4715 0.646149 20.4715C0.646149 20.4715 3.44681 25.7592 15.8548 25.7592C28.2628 25.7592 29.0073 11.6587 29.0073 11.6587C30.1762 11.2358 31.1647 10.4287 31.8094 9.37094C32.4541 8.31321 32.7162 7.06829 32.5524 5.84224C31.3569 6.12439 30.1292 6.24884 28.9009 6.21238Z" fill="#00C2FF"/>
</svg>
